<?xml version="1.0" encoding="utf-8"?>
<!-- Generator: Adobe Illustrator 19.1.0, SVG Export Plug-In . SVG Version: 6.00 Build 0)  -->
<svg version="1.1" id="Layer_1" xmlns="http://www.w3.org/2000/svg" xmlns:xlink="http://www.w3.org/1999/xlink" x="0px" y="0px"
	 viewBox="0 0 29 18" style="enable-background:new 0 0 29 18;" xml:space="preserve">
<g>
	<path d="M11.7,8.7c0.6-0.3,1-0.6,1.3-1c0.5-0.7,0.8-1.5,0.8-2.6c0-1-0.3-2.2-0.8-2.9C12.2,0.9,10.6,0,8.5,0H0v18h7.9
		c0.9,0,1.7,0,2.5-0.2c0.8-0.2,1.4-0.4,2-0.9c0.5-0.4,0.9-0.8,1.2-1.4c0.5-0.8,0.8-1.8,0.8-2.8c0-1-0.2-1.9-0.7-2.6
		C13.3,9.5,12.6,9,11.7,8.7z M3.6,3.6h3.7c0.8,0,1.5,0.1,2.1,0.3c0.6,0.3,0.9,0.8,0.9,1.6c0,0.7-0.2,1.1-0.7,1.4
		C9.2,7.2,8.5,7.2,7.8,7.2H3.6V3.6z M8.9,14.4H3.6v-3.6h5.3c0.9,0,1.8,0.9,1.8,1.8C10.7,13.7,9.8,14.4,8.9,14.4z"/>
</g>
<path d="M28.7,9.8c-0.2-1-0.5-2-1-2.8c-0.6-0.9-1.3-1.5-2.2-1.9c-0.9-0.4-1.9-0.6-3-0.6c-1.9,0-3.4,0.6-4.5,1.8
	c-1.2,1.2-1.8,2.9-1.8,5.1c0,2.4,0.6,4.1,1.9,5.1c1.3,1,2.8,1.6,4.5,1.6c2,0,3.6-0.3,4.8-1.6c0.7-0.8,1.1-2,1.2-2h-3.4
	c-0.2,0-0.4,0.4-0.7,0.6c-0.5,0.4-1.1,0.4-1.8,0.4c-0.7,0-1.3,0-1.8-0.3c-0.8-0.5-1.3-0.7-1.3-2.5h9.3C28.9,10.8,28.8,10.4,28.7,9.8
	z M19.7,10.8c0.1-1.8,1.1-3.1,2.9-3.1c1.7,0,2.8,1.3,2.9,3.1H19.7z"/>
<rect x="18.5" y="1.1" width="8.1" height="2.5"/>
</svg>
