<?xml version="1.0" encoding="utf-8"?>
<!-- Generator: Adobe Illustrator 19.1.0, SVG Export Plug-In . SVG Version: 6.00 Build 0)  -->
<svg version="1.1" id="Layer_1" xmlns="http://www.w3.org/2000/svg" xmlns:xlink="http://www.w3.org/1999/xlink" x="0px" y="0px"
	 viewBox="0 0 18 26" style="enable-background:new 0 0 18 26;" xml:space="preserve">
<style type="text/css">
	.st0{fill-rule:evenodd;clip-rule:evenodd;}
</style>
<g>
	<path class="st0" d="M12.9,22.1c0,0,0.1,0,0.1,0C12.7,22.3,12.7,22.2,12.9,22.1c-0.3,0-0.7-0.2-1.3-1.4c2.5-5.5,3.5-14,2.3-17.5
		C13.6,2,12.5,0,10.6,0C9.2,0,8.5,1,8,2.1c-1.2,2.7-1.4,7-0.8,11c-0.8-0.4-1.7-0.4-2.5-0.4c-3.3,0-5.8,4.5-4.3,8.9
		C1.1,23.7,3.3,26,6.1,26c1.8,0,3.3-1.2,4.5-3.1c0.8,1,1.9,1.7,3.3,1.7c1.2,0,2.3-1.2,1.9-2.1C15.2,21.2,13.5,21.8,12.9,22.1z
		 M5.6,23.2c-0.6,0-2.2,0.3-2.8-1.6c-1.2-3.8,0.9-6.5,2.7-6.5c0.6,0,1.3,0,2.3,0.9c0.2,1,0.5,2,0.8,3c0.1,0.4,0.2,0.8,0.4,1.2
		C8,22.2,7.1,23.2,5.6,23.2z M10.3,16.6c0,0-0.2-0.6-0.2-1C9.5,12.4,8.9,4.9,10.7,2.8c0.2-0.2,0.3-0.3,0.4-0.3
		c0.2,0,0.3,0.2,0.5,0.7C12.4,5.6,11.7,11.7,10.3,16.6z"/>
</g>
</svg>
