<?xml version="1.0" encoding="utf-8"?>
<!-- Generator: Adobe Illustrator 19.1.0, SVG Export Plug-In . SVG Version: 6.00 Build 0)  -->
<svg version="1.1" id="Layer_1" xmlns="http://www.w3.org/2000/svg" xmlns:xlink="http://www.w3.org/1999/xlink" x="0px" y="0px"
	 viewBox="0 0 44 44" style="enable-background:new 0 0 44 44;" xml:space="preserve">
<style type="text/css">
	.st0{fill:#C1C1C1;}
</style>
<g>
	<g>
		<g>
			<path d="M37,21.5c0,3.6-2.9,6.5-6.5,6.5c-3.6,0-6.6-2.9-6.6-6.5c0-3.6,2.9-6.5,6.6-6.5C34,15,37,17.9,37,21.5z"/>
		</g>
		<g>
			<path d="M20.1,21.5c0,3.6-2.9,6.5-6.5,6.5C10,28,7,25.1,7,21.5C7,17.9,10,15,13.6,15C17.2,15,20.1,17.9,20.1,21.5z"/>
		</g>
	</g>
</g>
<g>
	<path class="st0" d="M32,1c6.1,0,11,4.9,11,11v20c0,6.1-4.9,11-11,11H12C5.9,43,1,38.1,1,32V12C1,5.9,5.9,1,12,1H32 M32,0H12
		C5.4,0,0,5.4,0,12v20c0,6.6,5.4,12,12,12h20c6.6,0,12-5.4,12-12V12C44,5.4,38.6,0,32,0L32,0z"/>
</g>
</svg>
