<?xml version="1.0" encoding="utf-8"?>
<!-- Generator: Adobe Illustrator 19.1.0, SVG Export Plug-In . SVG Version: 6.00 Build 0)  -->
<svg version="1.1" id="Layer_1" xmlns="http://www.w3.org/2000/svg" xmlns:xlink="http://www.w3.org/1999/xlink" x="0px" y="0px"
	 viewBox="0 0 22 21" style="enable-background:new 0 0 22 21;" xml:space="preserve">
<style type="text/css">
	.st0{fill-rule:evenodd;clip-rule:evenodd;}
</style>
<g>
	<g>
		<g>
			<g>
				<g>
					<path class="st0" d="M2.7,5.2c1.7,0,2.8-1.1,2.8-2.4c0-1.4-1.1-2.4-2.7-2.4C1.1,0.4,0,1.4,0,2.8C0,4.1,1.1,5.2,2.7,5.2L2.7,5.2
						L2.7,5.2z"/>
				</g>
				<g>
					<path class="st0" d="M12.4,21v-8.3c0-1.4,0.7-2.8,2.1-2.8c1.8,0,2.1,0.9,2.1,2.8V21H22v-8.3c0-4.3-2.2-6.2-5.5-6.2
						c-2.7,0-3.4,1.6-4.1,2.5h0l0.1-3.2H6.9V21H12.4z"/>
				</g>
			</g>
		</g>
	</g>
	<g>
		<polygon class="st0" points="5.5,21 5.5,5.9 0,5.9 0,21 5.5,21 		"/>
	</g>
</g>
</svg>
