<?xml version="1.0" encoding="utf-8"?>
<!-- Generator: Adobe Illustrator 19.1.0, SVG Export Plug-In . SVG Version: 6.00 Build 0)  -->
<svg version="1.1" id="Layer_1" xmlns="http://www.w3.org/2000/svg" xmlns:xlink="http://www.w3.org/1999/xlink" x="0px" y="0px"
	 viewBox="0 0 28 28" style="enable-background:new 0 0 28 28;" xml:space="preserve">
<style type="text/css">
	.st0{fill:#231F20;}
</style>
<g>
	<g>
		<path class="st0" d="M19.7,0.5H8.3C4,0.5,0.5,4,0.5,8.3v11.4c0,4.3,3.5,7.8,7.8,7.8h11.4c4.3,0,7.8-3.5,7.8-7.8V8.3
			C27.5,4,24,0.5,19.7,0.5 M25,19.9c0,2.9-2.3,5.2-5.2,5.2H8.2c-2.9,0-5.2-2.3-5.2-5.2V8.2C3,5.4,5.3,3,8.2,3h11.7
			C22.7,3,25,5.4,25,8.2V19.9z"/>
		<path class="st0" d="M19.7,28H8.3C3.7,28,0,24.3,0,19.7V8.3C0,3.7,3.7,0,8.3,0h11.4C24.3,0,28,3.7,28,8.3v11.4
			C28,24.3,24.3,28,19.7,28z M8.3,1C4.3,1,1,4.3,1,8.3v11.4c0,4,3.3,7.3,7.3,7.3h11.4c4,0,7.3-3.3,7.3-7.3V8.3c0-4-3.3-7.3-7.3-7.3
			H8.3z M19.8,25.6H8.2c-3.1,0-5.7-2.5-5.7-5.7V8.2c0-3.1,2.5-5.7,5.7-5.7h11.7c3.1,0,5.7,2.5,5.7,5.7v11.7
			C25.5,23,23,25.6,19.8,25.6z M8.2,3.5c-2.6,0-4.7,2.1-4.7,4.7v11.7c0,2.6,2.1,4.7,4.7,4.7h11.7c2.6,0,4.7-2.1,4.7-4.7V8.2
			c0-2.6-2.1-4.7-4.7-4.7H8.2z"/>
	</g>
	<g>
		<path class="st0" d="M14,7.1c-3.9,0-7,3.1-7,7c0,3.9,3.1,7,7,7c3.9,0,7-3.1,7-7C21,10.2,17.9,7.1,14,7.1 M14,18.6
			c-2.5,0-4.5-2-4.5-4.5c0-2.5,2-4.5,4.5-4.5c2.5,0,4.5,2,4.5,4.5C18.5,16.6,16.5,18.6,14,18.6"/>
		<path class="st0" d="M14,21.6c-4.1,0-7.5-3.4-7.5-7.5S9.9,6.6,14,6.6c4.1,0,7.5,3.4,7.5,7.5S18.1,21.6,14,21.6z M14,7.5
			c-3.6,0-6.5,2.9-6.5,6.5c0,3.6,2.9,6.5,6.5,6.5s6.5-2.9,6.5-6.5C20.5,10.5,17.6,7.5,14,7.5z M14,19.1c-2.8,0-5-2.3-5-5
			c0-2.8,2.3-5,5-5s5,2.3,5,5C19,16.8,16.8,19.1,14,19.1z M14,10c-2.2,0-4.1,1.8-4.1,4.1c0,2.2,1.8,4.1,4.1,4.1
			c2.2,0,4.1-1.8,4.1-4.1C18.1,11.8,16.2,10,14,10z"/>
	</g>
	<g>
		<path class="st0" d="M21.2,5.2c-0.9,0-1.6,0.7-1.6,1.6c0,0.9,0.7,1.6,1.6,1.6c0.9,0,1.6-0.7,1.6-1.6C22.9,5.9,22.1,5.2,21.2,5.2"
			/>
		<path class="st0" d="M21.2,8.9c-1.2,0-2.1-1-2.1-2.1s1-2.1,2.1-2.1c1.2,0,2.1,1,2.1,2.1S22.4,8.9,21.2,8.9z M21.2,5.6
			c-0.6,0-1.1,0.5-1.1,1.1s0.5,1.1,1.1,1.1c0.6,0,1.1-0.5,1.1-1.1S21.9,5.6,21.2,5.6z"/>
	</g>
</g>
</svg>
