<?xml version="1.0" encoding="utf-8"?>
<!-- Generator: Adobe Illustrator 19.1.0, SVG Export Plug-In . SVG Version: 6.00 Build 0)  -->
<svg version="1.1" id="Layer_1" xmlns="http://www.w3.org/2000/svg" xmlns:xlink="http://www.w3.org/1999/xlink" x="0px" y="0px"
	 viewBox="0 0 30 26" style="enable-background:new 0 0 30 26;" xml:space="preserve">
<style type="text/css">
	.st0{fill-rule:evenodd;clip-rule:evenodd;}
</style>
<path class="st0" d="M10,15.2c0,3.3,0,6.6,0,9.9c0,0.7-0.3,0.9-0.9,0.6c-2.8-1.4-5.6-2.8-8.4-4.2C0.2,21.3,0,20.9,0,20.4
	C0,13.8,0,7.2,0,0.6C0,0.1,0.2,0,0.7,0.2c3,1.5,6,3,9.1,4.5C9.9,4.9,10,5,10,5.2C10,8.5,10,11.9,10,15.2z"/>
<path class="st0" d="M20.5,20.3c-0.5-0.8-1-1.6-1.5-2.4c-1.6-2.6-3.2-5.3-4.9-7.9c-0.1-0.2-0.1-0.3,0-0.5c1.9-3,3.7-6,5.6-9
	c0.3-0.4,0.3-0.5,0.8-0.2c3,1.5,6.1,3,9.1,4.5C30,4.9,30,4.9,29.8,5.3c-3,4.9-6,9.8-9.1,14.7C20.6,20.1,20.6,20.2,20.5,20.3z"/>
<path class="st0" d="M30,6.7c0,0.1,0,0.2,0,0.3c0,6,0,12,0,17.9c0,0.9-0.3,1.1-1.1,0.7c-2.6-1.3-5.2-2.6-7.8-3.9
	c-0.1,0-0.2-0.1-0.3-0.2C23.8,16.6,26.9,11.6,30,6.7C30,6.7,30,6.7,30,6.7z"/>
<path class="st0" d="M19.9,21.1c-1.9-1-3.9-1.9-5.8-2.9c-1-0.5-2-1-3-1.5c-0.2-0.1-0.2-0.2-0.2-0.3c0-3.3,0-6.5,0-9.8
	c0-0.1,0-0.1,0-0.2C13.9,11.3,16.9,16.2,19.9,21.1C19.9,21.1,19.9,21.1,19.9,21.1z"/>
</svg>
