<?xml version="1.0" encoding="utf-8"?>
<!-- Generator: Adobe Illustrator 19.1.0, SVG Export Plug-In . SVG Version: 6.00 Build 0)  -->
<svg version="1.1" id="Layer_1" xmlns="http://www.w3.org/2000/svg" xmlns:xlink="http://www.w3.org/1999/xlink" x="0px" y="0px"
	 viewBox="0 0 28 23" style="enable-background:new 0 0 28 23;" xml:space="preserve">
<style type="text/css">
	.st0{fill:#231F20;}
</style>
<g>
	<path class="st0" d="M27.6,8.5c-0.3,0-0.6,0.2-0.9,0.6c-0.1,0.1-0.2,0.2-0.4,0.3V2.9C26.3,1.3,25,0,23.4,0H4.8
		C3.2,0,1.9,1.3,1.9,2.9v6.7C1.3,9.1,0.8,8.7,0.5,8.7c-0.1,0-0.1,0-0.2,0.1C0,9.5,0,10.4,1,11.5c0.9,1.1,4.5,2.2,4.5,2.2
		s0,4.2,0,5.6S8.1,22,9.6,22c1.5,0,2.6-1,2.6-1.8c0-0.7,0-2.7,0-4.4c0.6,0.3,1.2,0.4,1.9,0.4c0,0,0,0,0,0c0,0.4,0,0.7,0,1
		c0,1.4,0,2.6,0,2.9c0,0.7,1,2.5,4.1,2.5s3.9-3.6,3.9-4.2c0-0.6,0-2.8,0-4.4c2.2-1.1,4.4-1.8,5.5-3.8C28.2,9,28.1,8.5,27.6,8.5z
		 M3.6,2.9c0-0.6,0.5-1.2,1.2-1.2h18.6c0.6,0,1.2,0.5,1.2,1.2v7.4c-1.4,0.6-3,1.1-3.4,1.1c-0.5,0-3.4,0-4.4,0c-1,0-2.6,0.3-2.6,0.9
		c0,0,0,0.4,0,1.1c-0.5-0.2-0.9-0.5-1.2-0.7c-0.7-0.6-1.4-1.1-2.6-1.1c-0.1,0-0.1,0-0.2,0c-0.1,0-0.3,0-0.4,0
		c-1.5,0-4.1-0.2-5.7-0.6c-0.2,0-0.3-0.1-0.5-0.2V2.9z"/>
	<circle class="st0" cx="18.3" cy="6.9" r="3.2"/>
	<circle class="st0" cx="10.2" cy="6.9" r="3.2"/>
</g>
</svg>
