<?xml version="1.0" encoding="utf-8"?><svg xmlns="http://www.w3.org/2000/svg" xmlns:xlink="http://www.w3.org/1999/xlink"><symbol viewBox="0 0 29 18" id="be" xmlns="http://www.w3.org/2000/svg"><path d="M11.7 8.7c.6-.3 1-.6 1.3-1 .5-.7.8-1.5.8-2.6 0-1-.3-2.2-.8-2.9C12.2.9 10.6 0 8.5 0H0v18h7.9c.9 0 1.7 0 2.5-.2s1.4-.4 2-.9c.5-.4.9-.8 1.2-1.4.5-.8.8-1.8.8-2.8 0-1-.2-1.9-.7-2.6-.4-.6-1.1-1.1-2-1.4zM3.6 3.6h3.7c.8 0 1.5.1 2.1.3.6.3.9.8.9 1.6 0 .7-.2 1.1-.7 1.4-.4.3-1.1.3-1.8.3H3.6V3.6zm5.3 10.8H3.6v-3.6h5.3c.9 0 1.8.9 1.8 1.8 0 1.1-.9 1.8-1.8 1.8zm19.8-4.6c-.2-1-.5-2-1-2.8-.6-.9-1.3-1.5-2.2-1.9-.9-.4-1.9-.6-3-.6-1.9 0-3.4.6-4.5 1.8-1.2 1.2-1.8 2.9-1.8 5.1 0 2.4.6 4.1 1.9 5.1 1.3 1 2.8 1.6 4.5 1.6 2 0 3.6-.3 4.8-1.6.7-.8 1.1-2 1.2-2h-3.4c-.2 0-.4.4-.7.6-.5.4-1.1.4-1.8.4s-1.3 0-1.8-.3c-.8-.5-1.3-.7-1.3-2.5h9.3c0-1.9-.1-2.3-.2-2.9zm-9 1c.1-1.8 1.1-3.1 2.9-3.1 1.7 0 2.8 1.3 2.9 3.1h-5.8zm-1.2-9.7h8.1v2.5h-8.1z"/></symbol><symbol id="d" viewBox="0 0 18 26" xmlns="http://www.w3.org/2000/svg"><style>.bst0{fill-rule:evenodd;clip-rule:evenodd}</style><path class="bst0" d="M12.9 22.1h.1c-.3.2-.3.1-.1 0-.3 0-.7-.2-1.3-1.4 2.5-5.5 3.5-14 2.3-17.5C13.6 2 12.5 0 10.6 0 9.2 0 8.5 1 8 2.1c-1.2 2.7-1.4 7-.8 11-.8-.4-1.7-.4-2.5-.4-3.3 0-5.8 4.5-4.3 8.9.7 2.1 2.9 4.4 5.7 4.4 1.8 0 3.3-1.2 4.5-3.1.8 1 1.9 1.7 3.3 1.7 1.2 0 2.3-1.2 1.9-2.1-.6-1.3-2.3-.7-2.9-.4zm-7.3 1.1c-.6 0-2.2.3-2.8-1.6-1.2-3.8.9-6.5 2.7-6.5.6 0 1.3 0 2.3.9.2 1 .5 2 .8 3 .1.4.2.8.4 1.2-1 2-1.9 3-3.4 3zm4.7-6.6s-.2-.6-.2-1c-.6-3.2-1.2-10.7.6-12.8.2-.2.3-.3.4-.3.2 0 .3.2.5.7.8 2.4.1 8.5-1.3 13.4z"/></symbol><symbol viewBox="0 0 10 22" id="facebook" xmlns="http://www.w3.org/2000/svg"><path d="M5 7V5.5C5 4.5 5.5 4 6.9 4H10V0H6.8C3.3 0 1 1.8 1 4.9V7H0v4h1v11h4V11h4.3l.3-4H5z"/></symbol><symbol id="flcr" viewBox="0 0 44 44" xmlns="http://www.w3.org/2000/svg"><style>.dst0{fill:#c1c1c1}</style><path d="M37 21.5c0 3.6-2.9 6.5-6.5 6.5s-6.6-2.9-6.6-6.5 2.9-6.5 6.6-6.5c3.5 0 6.5 2.9 6.5 6.5zm-16.9 0c0 3.6-2.9 6.5-6.5 6.5S7 25.1 7 21.5s3-6.5 6.6-6.5c3.6 0 6.5 2.9 6.5 6.5z"/><path class="dst0" d="M32 1c6.1 0 11 4.9 11 11v20c0 6.1-4.9 11-11 11H12C5.9 43 1 38.1 1 32V12C1 5.9 5.9 1 12 1h20m0-1H12C5.4 0 0 5.4 0 12v20c0 6.6 5.4 12 12 12h20c6.6 0 12-5.4 12-12V12c0-6.6-5.4-12-12-12z"/></symbol><symbol viewBox="0 0 24.1 24.1" id="gamb-close" xmlns="http://www.w3.org/2000/svg"><path d="M2.957.033L24.17 21.246l-2.9 2.9L.059 2.931z"/><path d="M24.112 2.984L2.9 24.197 0 21.298 21.213.085z"/></symbol><symbol id="in" viewBox="0 0 22 21" xmlns="http://www.w3.org/2000/svg"><style>.fst0{fill-rule:evenodd;clip-rule:evenodd}</style><path class="fst0" d="M2.7 5.2c1.7 0 2.8-1.1 2.8-2.4C5.5 1.4 4.4.4 2.8.4 1.1.4 0 1.4 0 2.8c0 1.3 1.1 2.4 2.7 2.4zM12.4 21v-8.3c0-1.4.7-2.8 2.1-2.8 1.8 0 2.1.9 2.1 2.8V21H22v-8.3c0-4.3-2.2-6.2-5.5-6.2-2.7 0-3.4 1.6-4.1 2.5l.1-3.2H6.9V21h5.5zM5.5 21V5.9H0V21h5.5z"/></symbol><symbol id="inst" viewBox="0 0 28 28" xmlns="http://www.w3.org/2000/svg"><style>.gst0{fill:#231f20}</style><path class="gst0" d="M19.7.5H8.3C4 .5.5 4 .5 8.3v11.4c0 4.3 3.5 7.8 7.8 7.8h11.4c4.3 0 7.8-3.5 7.8-7.8V8.3C27.5 4 24 .5 19.7.5M25 19.9c0 2.9-2.3 5.2-5.2 5.2H8.2c-2.9 0-5.2-2.3-5.2-5.2V8.2C3 5.4 5.3 3 8.2 3h11.7C22.7 3 25 5.4 25 8.2v11.7z"/><path class="gst0" d="M19.7 28H8.3C3.7 28 0 24.3 0 19.7V8.3C0 3.7 3.7 0 8.3 0h11.4C24.3 0 28 3.7 28 8.3v11.4c0 4.6-3.7 8.3-8.3 8.3zM8.3 1C4.3 1 1 4.3 1 8.3v11.4c0 4 3.3 7.3 7.3 7.3h11.4c4 0 7.3-3.3 7.3-7.3V8.3c0-4-3.3-7.3-7.3-7.3H8.3zm11.5 24.6H8.2c-3.1 0-5.7-2.5-5.7-5.7V8.2c0-3.1 2.5-5.7 5.7-5.7h11.7c3.1 0 5.7 2.5 5.7 5.7v11.7c-.1 3.1-2.6 5.7-5.8 5.7zM8.2 3.5c-2.6 0-4.7 2.1-4.7 4.7v11.7c0 2.6 2.1 4.7 4.7 4.7h11.7c2.6 0 4.7-2.1 4.7-4.7V8.2c0-2.6-2.1-4.7-4.7-4.7H8.2z"/><path class="gst0" d="M14 7.1c-3.9 0-7 3.1-7 7s3.1 7 7 7 7-3.1 7-7-3.1-7-7-7m0 11.5c-2.5 0-4.5-2-4.5-4.5s2-4.5 4.5-4.5 4.5 2 4.5 4.5-2 4.5-4.5 4.5"/><path class="gst0" d="M14 21.6c-4.1 0-7.5-3.4-7.5-7.5S9.9 6.6 14 6.6s7.5 3.4 7.5 7.5-3.4 7.5-7.5 7.5zm0-14.1c-3.6 0-6.5 2.9-6.5 6.5s2.9 6.5 6.5 6.5 6.5-2.9 6.5-6.5c0-3.5-2.9-6.5-6.5-6.5zm0 11.6c-2.8 0-5-2.3-5-5 0-2.8 2.3-5 5-5s5 2.3 5 5-2.2 5-5 5zm0-9.1c-2.2 0-4.1 1.8-4.1 4.1 0 2.2 1.8 4.1 4.1 4.1 2.2 0 4.1-1.8 4.1-4.1S16.2 10 14 10zM21.2 5.2c-.9 0-1.6.7-1.6 1.6 0 .9.7 1.6 1.6 1.6.9 0 1.6-.7 1.6-1.6.1-.9-.7-1.6-1.6-1.6"/><path class="gst0" d="M21.2 8.9c-1.2 0-2.1-1-2.1-2.1s1-2.1 2.1-2.1c1.2 0 2.1 1 2.1 2.1s-.9 2.1-2.1 2.1zm0-3.3c-.6 0-1.1.5-1.1 1.1s.5 1.1 1.1 1.1c.6 0 1.1-.5 1.1-1.1s-.4-1.1-1.1-1.1z"/></symbol><symbol id="m" viewBox="0 0 30 26" xmlns="http://www.w3.org/2000/svg"><style>.hst0{fill-rule:evenodd;clip-rule:evenodd}</style><path class="hst0" d="M10 15.2v9.9c0 .7-.3.9-.9.6L.7 21.5c-.5-.2-.7-.6-.7-1.1V.6C0 .1.2 0 .7.2c3 1.5 6 3 9.1 4.5.1.2.2.3.2.5v10zm10.5 5.1L19 17.9c-1.6-2.6-3.2-5.3-4.9-7.9-.1-.2-.1-.3 0-.5 1.9-3 3.7-6 5.6-9 .3-.4.3-.5.8-.2 3 1.5 6.1 3 9.1 4.5.4.1.4.1.2.5-3 4.9-6 9.8-9.1 14.7-.1.1-.1.2-.2.3zM30 6.7v18.2c0 .9-.3 1.1-1.1.7l-7.8-3.9c-.1 0-.2-.1-.3-.2 3-4.9 6.1-9.9 9.2-14.8zM19.9 21.1c-1.9-1-3.9-1.9-5.8-2.9l-3-1.5c-.2-.1-.2-.2-.2-.3v-10l9 14.7z"/></symbol><symbol viewBox="0 0 29 18" id="r" xmlns="http://www.w3.org/2000/svg"><path d="M16.5.5H0V18h5.1v-6.7h10l1.5 6.7h5.1l-1.5-6.7h1.5V.5h-5.2zm0 6.7H5.1v-2h11.5v2zm7.8-3.7H29v4.7h-4.7zm0 5.7H29v4.7h-4.7z"/></symbol><symbol id="ss" viewBox="0 0 28 23" xmlns="http://www.w3.org/2000/svg"><style>.jst0{fill:#231f20}</style><path class="jst0" d="M27.6 8.5c-.3 0-.6.2-.9.6-.1.1-.2.2-.4.3V2.9C26.3 1.3 25 0 23.4 0H4.8C3.2 0 1.9 1.3 1.9 2.9v6.7C1.3 9.1.8 8.7.5 8.7c-.1 0-.1 0-.2.1-.3.7-.3 1.6.7 2.7.9 1.1 4.5 2.2 4.5 2.2v5.6c0 1.4 2.6 2.7 4.1 2.7 1.5 0 2.6-1 2.6-1.8v-4.4c.6.3 1.2.4 1.9.4v3.9c0 .7 1 2.5 4.1 2.5s3.9-3.6 3.9-4.2V14c2.2-1.1 4.4-1.8 5.5-3.8.6-1.2.5-1.7 0-1.7zm-24-5.6c0-.6.5-1.2 1.2-1.2h18.6c.6 0 1.2.5 1.2 1.2v7.4c-1.4.6-3 1.1-3.4 1.1h-4.4c-1 0-2.6.3-2.6.9v1.1c-.5-.2-.9-.5-1.2-.7-.7-.6-1.4-1.1-2.6-1.1h-.6c-1.5 0-4.1-.2-5.7-.6-.2 0-.3-.1-.5-.2V2.9z"/><circle class="jst0" cx="18.3" cy="6.9" r="3.2"/><circle class="jst0" cx="10.2" cy="6.9" r="3.2"/></symbol><symbol id="tu" viewBox="0 0 29 20.4" xmlns="http://www.w3.org/2000/svg"><style>.kst0{fill:#f93d3d}</style><path d="M15.3 0v5.1h5.1v3.2h-5.1v5.1c0 1.2.2 2.1.3 2.5.1.3.4.6.7.8.5.3 1 .4 1.6.4 1 0 2.1-.3 3.1-1v3.2c-.9.4-1.7.7-2.4.9-.7.2-1.2.2-2.1.2-2.4 0-5.7-1.1-5.7-4.9V8.3H8.2V5.2c2.5 0 4.5-2.5 4.5-5.2h2.6z" class="kst0"/></symbol></svg>